<?xml version="1.0" encoding="UTF-8"?>
<svg width="27px" height="22px" viewBox="0 0 27 22" version="1.1" xmlns="http://www.w3.org/2000/svg" xmlns:xlink="http://www.w3.org/1999/xlink">
    <!-- Generator: Sketch 56.3 (81716) - https://sketch.com -->
    <title>MeijerLogo-Mobile</title>
    <desc>Created with Sketch.</desc>
    <g id="Page-1" stroke="none" stroke-width="1" fill="none" fill-rule="evenodd">
        <path d="M0,0.383018844 L5.70221712,0.383018844 L5.70221712,3.37471425 C6.72488189,1.12518889 8.4670837,0 10.9268301,0 C13.486196,0 15.0362746,1.12518889 15.576212,3.37471425 C16.5550442,1.12518889 18.3208701,0 20.8714126,0 C22.2954014,0 23.431917,0.255440609 24.2752667,0.768879073 C25.1183319,1.28174926 25.7049481,1.98357162 26.0371078,2.8732096 C26.3678444,3.76313172 26.5343511,5.43926537 26.5343511,7.90331538 L26.5343511,22 L20.5031052,22 L20.5031052,8.51847547 C20.5031052,6.90911439 20.3858389,5.8626319 20.1524448,5.37817557 C19.9199045,4.89315097 19.4030219,4.6504966 18.6003738,4.6504966 C17.6374807,4.6504966 17.0093089,4.96816356 16.7189894,5.60207679 C16.4272467,6.23712658 16.2829408,7.51518204 16.2829408,9.43766386 L16.2829408,22 L10.2519796,22 L10.2519796,8.32526121 C10.2519796,6.78721893 10.1406904,5.79102897 9.9223815,5.33555478 C9.70293409,4.87979645 9.20455223,4.6504966 8.42666667,4.6504966 C7.46434281,4.6504966 6.82421671,4.98322291 6.50714225,5.64526586 C6.1892139,6.30759296 6.03010741,7.57200976 6.03010741,9.43766386 L6.03010741,22 L0,22 L0,0.383018844 Z" id="MeijerLogo-Mobile" fill="#DD1321"></path>
    </g>
</svg>